<?xml version="1.0" standalone="no"?>
<!DOCTYPE svg PUBLIC "-//W3C//DTD SVG 1.1//EN" "http://www.w3.org/Graphics/SVG/1.1/DTD/svg11.dtd" >
<svg xmlns="http://www.w3.org/2000/svg">
<metadata></metadata>
<defs>
<font id="readerregular" horiz-adv-x="600" >
<font-face units-per-em="1000" ascent="750" descent="-250" />
<missing-glyph horiz-adv-x="290" />
<glyph horiz-adv-x="290" />
<glyph unicode=" "  horiz-adv-x="290" />
<glyph unicode="&#x09;" horiz-adv-x="290" />
<glyph unicode="&#xa0;" horiz-adv-x="290" />
<glyph unicode="E" horiz-adv-x="577" d="M545 75v-75h-469v710h459v-75h-375v-229h315v-75h-315v-256h385z" />
<glyph unicode="F" horiz-adv-x="560" d="M543 635h-383v-229h309v-75h-309v-331h-84v710h467v-75z" />
<glyph unicode="G" horiz-adv-x="715" d="M652 371v-371h-83l-21 56c-47 -40 -108 -65 -180 -65c-183 0 -323 151 -323 364c0 209 140 364 323 364c134 0 232 -62 279 -163l-70 -41c-36 80 -110 129 -209 129c-136 0 -239 -123 -239 -289c0 -169 103 -289 239 -289c112 0 201 61 201 211v19h-179v75h262z" />
<glyph unicode="H" horiz-adv-x="687" d="M527 710h84v-710h-84v336h-367v-336h-84v710h84v-299h367v299z" />
<glyph unicode="I" horiz-adv-x="232" d="M158 0h-84v710h84v-710z" />
<glyph unicode="J" horiz-adv-x="510" d="M436 226c0 -106 -31 -235 -216 -235c-109 0 -197 72 -197 211h84c0 -99 44 -136 113 -136c92 0 132 54 132 158v486h84v-484z" />
<glyph unicode="K" horiz-adv-x="626" d="M502 710h108l-265 -293l281 -417h-99l-234 360l-133 -147v-213h-84v710h84v-383z" />
<glyph unicode="L" horiz-adv-x="572" d="M555 75v-75h-479v710h84v-635h395z" />
<glyph unicode="M" horiz-adv-x="890" d="M667 710h147v-710h-84v639l-245 -639h-80l-245 639v-639h-84v710h147l222 -580z" />
<glyph unicode="N" horiz-adv-x="691" d="M531 710h84v-710h-84l-371 572v-572h-84v710h84l371 -572v572z" />
<glyph unicode="O" horiz-adv-x="774" d="M387 -9c-197 0 -342 171 -342 364s145 364 342 364s342 -171 342 -364s-145 -364 -342 -364zM387 643c-151 0 -258 -138 -258 -288s107 -288 258 -288s258 138 258 288s-107 288 -258 288z" />
<glyph unicode="P" horiz-adv-x="641" d="M631 496c0 -135 -75 -215 -253 -215h-218v-281h-84v710h302c178 0 253 -67 253 -214zM365 357c128 0 182 34 182 139c0 97 -54 139 -170 139h-217v-278h205z" />
<glyph unicode="Q" horiz-adv-x="809" d="M670 103c19 -16 42 -28 94 -28v-84c-49 0 -90 10 -121 28c-21 13 -38 28 -51 45c-57 -45 -128 -73 -205 -73c-197 0 -342 170 -342 364c0 193 145 364 342 364c196 0 342 -171 342 -364c0 -87 -29 -167 -78 -230c6 -9 13 -16 19 -22zM387 71c73 0 119 23 164 60 c-16 30 -34 58 -56 74c-23 17 -55 30 -117 30v84c85 0 142 -23 180 -58c22 -19 40 -43 52 -64c28 44 35 101 35 158c0 149 -107 288 -258 288s-258 -138 -258 -288c0 -151 106 -284 258 -284z" />
<glyph unicode="R" horiz-adv-x="659" d="M542 0l-212 281h-170v-281h-84v710h302c178 0 253 -67 253 -214c0 -135 -65 -190 -198 -212l213 -284h-104zM365 357c128 0 182 34 182 139c0 97 -54 139 -170 139h-217v-278h205z" />
<glyph unicode="S" horiz-adv-x="611" d="M18 137l70 37c36 -58 111 -107 235 -107c125 0 173 65 173 133c0 225 -460 15 -460 314c0 151 127 205 263 205c137 0 207 -82 228 -110l-65 -40c-49 55 -101 74 -163 74c-87 0 -178 -27 -178 -129c0 -214 459 -2 459 -314c0 -129 -112 -209 -257 -209 c-149 0 -262 59 -305 146z" />
<glyph unicode="T" horiz-adv-x="584" d="M575 710v-75h-241v-635h-84v635h-241v75h566z" />
<glyph unicode="U" horiz-adv-x="710" d="M640 710v-386c0 -191 -58 -333 -288 -333c-232 0 -282 123 -282 333v386h84v-377c0 -142 40 -267 198 -267c154 0 204 121 204 266v378h84z" />
<glyph unicode="V" horiz-adv-x="627" d="M314 130l221 580h89l-270 -710h-79l-272 710h89z" />
<glyph unicode="W" horiz-adv-x="927" d="M672 157l157 553h95l-211 -710h-82l-167 576l-166 -576h-83l-212 710h95l158 -553l157 553h101z" />
<glyph unicode="X" horiz-adv-x="618" d="M311 304l-206 -304h-98l256 374l-224 336h100l175 -264l178 264h97l-230 -334l252 -376h-99z" />
<glyph unicode="Y" horiz-adv-x="576" d="M289 362l191 348h95l-245 -443v-267h-84v268l-245 442h96z" />
<glyph unicode="Z" horiz-adv-x="561" d="M124 75h418v-75h-522v75l406 560h-388v75h492v-75z" />
<glyph unicode="a" horiz-adv-x="516" d="M476 14v-14h-60c-19 0 -33 15 -33 46v11c-27 -28 -76 -66 -156 -66c-120 0 -185 68 -185 168c0 74 51 155 210 155c42 0 132 7 132 66s-54 86 -115 86c-14 0 -87 -2 -137 -66l-58 54s58 84 192 84c138 0 195 -79 195 -194v-306c0 -12 5 -24 15 -24zM384 248v42 c-21 -35 -84 -43 -122 -43c-127 0 -129 -59 -129 -96c0 -52 38 -91 97 -91c148 0 154 107 154 188z" />
<glyph unicode="b" horiz-adv-x="616" d="M319 538c150 0 257 -116 257 -272c0 -147 -107 -275 -257 -275c-63 0 -115 24 -153 62l-17 -53h-79v710h79v-255c35 48 90 83 170 83zM321 63c105 0 175 100 175 203c0 102 -70 200 -175 200s-177 -101 -177 -200c0 -120 71 -203 177 -203z" />
<glyph unicode="d" horiz-adv-x="616" d="M297 538c80 0 135 -35 170 -83v255h79v-710h-79l-17 53c-38 -38 -90 -62 -153 -62c-150 0 -257 128 -257 275c0 156 107 272 257 272zM295 63c106 0 177 83 177 203c0 99 -72 200 -177 200s-176 -98 -176 -200c0 -103 71 -203 176 -203z" />
<glyph unicode="c" horiz-adv-x="532" d="M40 255c0 166 92 283 258 283c111 0 176 -72 200 -126l-63 -36c-20 35 -55 90 -137 90c-90 0 -179 -53 -179 -211c0 -137 95 -192 174 -192c89 0 132 47 150 84l64 -33c-25 -57 -88 -123 -214 -123c-133 0 -253 97 -253 264z" />
<glyph unicode="p" horiz-adv-x="616" d="M319 -9c-80 0 -135 35 -170 83v-254h-79v709h79l17 -53c38 38 90 62 153 62c150 0 257 -128 257 -275c0 -156 -107 -272 -257 -272zM321 466c-106 0 -177 -83 -177 -203c0 -99 72 -200 177 -200s176 98 176 200c0 103 -71 203 -176 203z" />
<glyph unicode="q" horiz-adv-x="616" d="M297 -9c-150 0 -257 116 -257 272c0 147 107 275 257 275c63 0 115 -24 153 -62l17 53h79v-709h-79v254c-35 -48 -90 -83 -170 -83zM295 466c-105 0 -176 -100 -176 -203c0 -102 71 -200 176 -200s177 101 177 200c0 120 -71 203 -177 203z" />
<glyph unicode="e" horiz-adv-x="583" d="M541 273v-30h-422c5 -105 71 -180 177 -180c61 0 111 22 155 76l62 -36c-42 -61 -114 -112 -217 -112c-87 0 -256 49 -256 270c0 143 79 277 250 277c175 0 251 -136 251 -265zM290 466c-82 0 -150 -46 -167 -151h339c-6 48 -36 151 -172 151z" />
<glyph unicode="f" horiz-adv-x="290" d="M278 529v-72h-93v-457h-79v457h-101v72h101v38c0 113 42 152 106 152c49 0 66 -9 66 -9v-72s-13 9 -38 9c-51 0 -55 -58 -55 -118h93z" />
<glyph unicode="g" horiz-adv-x="596" d="M528 529v-452c0 -95 -29 -266 -244 -266c-86 0 -167 27 -234 87l51 58c58 -52 115 -73 183 -73c128 0 165 97 165 196c-35 -47 -90 -83 -169 -83c-138 0 -240 111 -240 267c0 175 123 275 240 275c64 0 116 -24 153 -61l16 52h79zM278 68c103 0 176 92 176 195 c0 114 -64 203 -176 203c-109 0 -159 -101 -159 -203c0 -99 50 -195 159 -195z" />
<glyph unicode="h" horiz-adv-x="588" d="M524 346v-346h-79v344c0 53 -12 122 -115 122c-114 0 -181 -81 -181 -196v-270h-79v710h79v-272c34 50 91 100 182 100c149 0 193 -98 193 -192z" />
<glyph unicode="i" horiz-adv-x="223" d="M151 0h-79v529h79v-529zM153 601h-83v109h83v-109z" />
<glyph unicode="j" horiz-adv-x="247" d="M95 -1v531h79v-533c0 -157 -39 -186 -111 -186c-42 0 -78 9 -78 9v72s23 -9 56 -9c45 0 54 47 54 116zM92 710h85v-110h-85v110z" />
<glyph unicode="k" horiz-adv-x="526" d="M293 329l247 -329h-97l-201 275l-93 -100v-175h-79v710h79v-430l228 249h101z" />
<glyph unicode="l" horiz-adv-x="219" d="M149 0h-79v710h79v-710z" />
<glyph unicode="m" horiz-adv-x="821" d="M757 347v-347h-79v343c0 52 -8 123 -92 123c-104 0 -128 -84 -128 -224v-242h-79v347c0 55 -15 119 -93 119c-98 0 -137 -83 -137 -220v-246h-79v529h79l16 -55c28 35 68 64 122 64c82 0 127 -39 150 -92c29 47 77 92 150 92c142 0 170 -87 170 -191z" />
<glyph unicode="n" horiz-adv-x="586" d="M522 348v-348h-79v346c0 52 -12 120 -114 120c-114 0 -180 -72 -180 -195v-271h-79v529h79l20 -65c34 40 86 74 161 74c164 0 192 -98 192 -190z" />
<glyph unicode="o" horiz-adv-x="594" d="M297 538c148 0 257 -120 257 -274c0 -153 -109 -273 -257 -273s-257 120 -257 273c0 154 109 274 257 274zM297 63c106 0 178 97 178 201s-72 202 -178 202s-178 -98 -178 -202s72 -201 178 -201z" />
<glyph unicode="r" horiz-adv-x="371" d="M366 529v-72c-11 7 -26 9 -34 9c-132 0 -183 -79 -183 -210v-256h-79v529h79l17 -58c29 38 69 67 155 67c19 0 36 -4 45 -9z" />
<glyph unicode="s" horiz-adv-x="473" d="M26 103l68 30c17 -31 65 -70 151 -70c48 0 121 10 121 82c0 133 -323 30 -323 239c0 128 126 154 194 154c120 0 174 -69 178 -74l-56 -46s-52 48 -122 48c-56 0 -115 -14 -115 -82c0 -126 323 -27 323 -239c0 -65 -46 -154 -200 -154c-124 0 -195 68 -219 112z" />
<glyph unicode="t" horiz-adv-x="319" d="M242 63c48 0 64 9 64 9v-72s-22 -9 -83 -9c-72 0 -126 25 -126 152v314h-93v72h93v181h79v-181h130v-72h-130v-315c0 -29 0 -79 66 -79z" />
<glyph unicode="u" horiz-adv-x="594" d="M70 181v348h79v-346c0 -52 12 -120 114 -120c114 0 180 72 180 195v271h79v-529h-79l-20 65c-34 -40 -86 -74 -161 -74c-153 0 -192 98 -192 190z" />
<glyph unicode="v" horiz-adv-x="524" d="M518 529l-218 -529h-76l-218 529h86l170 -434l170 434h86z" />
<glyph unicode="w" horiz-adv-x="772" d="M8 529h86l127 -421l121 421h88l121 -421l127 421h86l-176 -529h-73l-129 397l-129 -397h-73z" />
<glyph unicode="x" horiz-adv-x="462" d="M229 209l-135 -209h-87l183 267l-179 262h94l128 -196l130 196h87l-174 -255l179 -274h-94z" />
<glyph unicode="y" horiz-adv-x="525" d="M521 529l-223 -529c-76 -182 -129 -189 -232 -189v72c100 0 121 26 157 121l-217 525h87l168 -426l174 426h86z" />
<glyph unicode="z" horiz-adv-x="420" d="M114 72h283v-72h-377v72l276 385h-258v72h353v-71z" />
<glyph unicode="D" horiz-adv-x="679" d="M635 355c0 -296 -201 -355 -338 -355h-221v710h221c137 0 338 -59 338 -355zM301 75c118 0 250 55 250 280s-132 280 -250 280h-141v-560h141z" />
<glyph unicode="-" horiz-adv-x="462" d="M60 251v85h342v-85h-342z" />
<glyph unicode="." horiz-adv-x="195" d="M145 113v-113h-95v113h95z" />
<glyph unicode="&#x2013;" horiz-adv-x="571" d="M511 334v-98h-451v98h451z" />
<glyph unicode="&#x2014;" horiz-adv-x="864" d="M804 334v-98h-744v98h744z" />
<glyph unicode="=" d="M523 421v-90h-458v90h458zM523 196v-90h-458v90h458z" />
<glyph unicode="[" horiz-adv-x="295" d="M85 -159v933h225v-68h-147v-797h147v-68h-225z" />
<glyph unicode="]" horiz-adv-x="295" d="M210 774v-933h-225v68h147v797h-147v68h225z" />
<glyph unicode="/" horiz-adv-x="518" d="M123 0h-105l389 719h106z" />
<glyph unicode="\" horiz-adv-x="575" d="M530 0h-105l-390 719h106z" />
<glyph unicode="|" horiz-adv-x="244" d="M85 -180v899h74v-899h-74z" />
<glyph horiz-adv-x="752" d="M672 617v-595c0 -11 -9 -22 -22 -22c-2 0 -3 0 -7 1l-267 77l-267 -77c-4 -1 -5 -1 -7 -1c-13 0 -22 11 -22 22v595c0 10 7 19 16 22l270 78c3 1 8 2 10 2s7 -1 10 -2l270 -78c9 -3 16 -12 16 -22zM354 366v303l-230 -67c8 -125 106 -225 230 -236zM398 669v-303 c124 11 222 111 230 236zM123 463v-412l231 67v204c-98 8 -183 62 -231 141zM629 51v412c-49 -79 -133 -133 -231 -141v-204z" />
<glyph unicode="!" horiz-adv-x="240" d="M93 199l-18 302v209h90v-209l-19 -302h-53zM168 113v-113h-96v113h96z" />
<glyph unicode=":" horiz-adv-x="195" d="M145 113v-113h-95v113h95zM145 535v-113h-95v113h95z" />
<glyph unicode="," horiz-adv-x="195" d="M145 113v-106c0 -66 -2 -79 -66 -128l-26 35c45 25 45 58 45 80v6h-48v113h95z" />
<glyph unicode=";" horiz-adv-x="195" d="M145 113v-106c0 -66 -2 -79 -66 -128l-26 35c45 25 45 58 45 80v6h-48v113h95zM145 535v-113h-95v113h95z" />
<glyph unicode="&#x22;" horiz-adv-x="370" d="M156 599l-14 -125h-65l-13 125v111h92v-111zM306 599l-14 -125h-65l-13 125v111h92v-111z" />
<glyph unicode="#" d="M25 443v74h140l40 193h76l-40 -193h177l40 193h76l-40 -193h131v-74h-147l-34 -166h136v-74h-152l-42 -203h-76l42 203h-177l-42 -203h-76l42 203h-119v74h135l34 166h-124zM225 443l-34 -166h177l34 166h-177z" />
<glyph unicode="'" horiz-adv-x="220" d="M156 599l-14 -125h-65l-13 125v111h92v-111z" />
<glyph unicode="$" horiz-adv-x="590" d="M264 718v76h74v-78c109 -15 166 -82 185 -107l-65 -40c-38 42 -76 63 -120 70v-244c96 -11 238 -37 238 -195c0 -124 -103 -202 -238 -208v-74h-74v76c-122 12 -213 67 -250 143l70 37c30 -49 88 -92 180 -104v259c-116 13 -232 43 -232 185c0 139 108 196 232 204z M492 200c0 93 -70 109 -154 120v-253c111 7 154 68 154 133zM117 514c0 -81 65 -101 147 -111v238c-77 -6 -147 -37 -147 -127z" />
<glyph unicode="&#x26;" horiz-adv-x="684" d="M553 314l61 -66s-24 -53 -70 -111l122 -137h-113l-66 75c-51 -47 -117 -84 -195 -84c-159 0 -244 83 -244 193c0 87 36 149 154 213c-53 55 -76 105 -76 157c0 84 48 165 170 165c137 0 178 -82 178 -167c0 -71 -29 -112 -138 -181l152 -171c41 59 65 114 65 114zM292 66 c52 0 102 30 141 69l-174 196c-70 -38 -120 -88 -120 -144c0 -15 3 -32 11 -48c35 -67 87 -73 142 -73zM210 554c0 -42 24 -70 69 -119c76 39 112 69 112 117c0 61 -39 92 -95 92c-45 0 -86 -29 -86 -90z" />
<glyph unicode="(" horiz-adv-x="315" d="M155 267c1 -255 93 -364 175 -453l-58 -51c-87 93 -194 231 -194 504c0 272 107 410 194 503l58 -51c-82 -89 -174 -198 -175 -452z" />
<glyph unicode=")" horiz-adv-x="315" d="M160 267c-1 254 -93 363 -175 452l58 51c87 -93 194 -231 194 -503c0 -273 -107 -411 -194 -504l-58 51c82 89 174 198 175 453z" />
<glyph unicode="0" horiz-adv-x="590" d="M544 355c0 -192 -34 -364 -249 -364s-249 172 -249 364s34 364 249 364s249 -172 249 -364zM295 70c140 0 161 142 161 275v20c0 133 -21 275 -161 275s-161 -142 -161 -275v-20c0 -133 21 -275 161 -275z" />
<glyph unicode="1" horiz-adv-x="590" d="M265 710h88v-710h-88v509h-135v80c6 0 135 0 135 121z" />
<glyph unicode="2" horiz-adv-x="590" d="M149 80h372v-80h-460v104c0 202 350 240 350 400c0 103 -55 135 -118 135c-69 0 -128 -46 -166 -85l-62 65c60 60 125 100 228 100c132 0 206 -84 206 -215c0 -212 -350 -242 -350 -424z" />
<glyph unicode="3" horiz-adv-x="590" d="M401 388c90 -28 134 -88 134 -171c0 -139 -74 -226 -242 -226c-86 0 -193 36 -245 111l67 61c38 -50 92 -92 178 -92c111 0 154 50 154 146c0 109 -106 130 -179 130v80c78 0 157 17 157 99c0 79 -66 113 -132 113c-56 0 -119 -31 -166 -85l-62 56c54 75 143 109 228 109 c105 0 220 -56 220 -193c0 -60 -39 -114 -112 -138z" />
<glyph unicode="4" horiz-adv-x="590" d="M545 228v-80h-133v-148h-88v148h-293v80l266 482h95l-266 -482h198v218h88v-218h133z" />
<glyph unicode="5" horiz-adv-x="590" d="M315 491c107 0 215 -72 215 -240c0 -157 -79 -260 -245 -260c-104 0 -174 43 -236 114l66 58c32 -43 91 -92 170 -92c103 0 157 66 157 180c0 82 -45 160 -144 160c-69 0 -127 -49 -149 -106h-82l31 405h396v-80h-319l-18 -211c38 53 107 72 158 72z" />
<glyph unicode="6" horiz-adv-x="590" d="M307 -9c-163 0 -260 96 -260 330c0 249 89 398 282 398c80 0 134 -27 180 -67l-51 -61c-40 36 -74 48 -137 48c-89 0 -167 -42 -186 -232c52 75 136 82 186 82c144 0 230 -99 230 -240c0 -160 -85 -258 -244 -258zM307 409c-109 0 -169 -77 -169 -168 c0 -122 82 -170 169 -170c113 0 156 78 156 170c0 112 -57 168 -156 168z" />
<glyph unicode="9" horiz-adv-x="590" d="M283 719c163 0 260 -96 260 -330c0 -249 -89 -398 -282 -398c-80 0 -134 27 -180 67l51 61c40 -36 74 -48 137 -48c89 0 167 42 186 232c-52 -75 -136 -82 -186 -82c-144 0 -230 99 -230 240c0 160 85 258 244 258zM283 301c109 0 169 77 169 168c0 122 -82 170 -169 170 c-113 0 -156 -78 -156 -170c0 -112 57 -168 156 -168z" />
<glyph unicode="7" horiz-adv-x="590" d="M70 710h471v-80c-153 -174 -217 -403 -231 -630h-88c9 215 60 450 201 630h-353v80z" />
<glyph unicode="8" horiz-adv-x="590" d="M178 376c-57 25 -96 77 -96 143c0 132 91 200 213 200s213 -68 213 -200c0 -66 -39 -118 -96 -143c69 -17 122 -97 122 -172c0 -139 -100 -213 -239 -213s-239 74 -239 213c0 75 53 155 122 172zM295 639c-90 0 -125 -51 -125 -121c0 -63 45 -105 125 -105 s125 42 125 105c0 70 -35 121 -125 121zM295 71c94 0 151 41 151 137c0 74 -61 121 -151 121s-151 -47 -151 -121c0 -96 57 -137 151 -137z" />
<glyph unicode="&#xa4;" horiz-adv-x="627" d="M178 79l-78 -88l-60 61l88 78c-28 38 -44 85 -44 135s17 97 44 135l-88 78l60 60l78 -89c38 28 84 45 135 45c50 0 97 -17 134 -44l79 88l61 -60l-89 -79c28 -38 44 -84 44 -134s-16 -97 -44 -135l89 -78l-61 -61l-78 88c-38 -27 -85 -43 -135 -43s-97 16 -135 43z M170 265c0 -79 64 -144 143 -144c80 0 143 64 143 144s-64 143 -143 143s-143 -64 -143 -143z" />
<glyph unicode="?" horiz-adv-x="541" d="M271 719c113 0 212 -59 212 -189c0 -156 -186 -158 -186 -299v-32h-89v41c0 167 182 169 182 292c0 63 -40 107 -119 107c-66 0 -141 -49 -178 -103l-64 57c53 73 144 126 242 126zM300 113v-113h-95v113h95z" />
<glyph unicode="&#xbf;" horiz-adv-x="524" d="M237 -189c-113 0 -212 59 -212 189c0 156 186 158 186 299v32h89v-41c0 -167 -182 -169 -182 -292c0 -63 40 -107 119 -107c66 0 141 49 178 103l64 -57c-53 -73 -144 -126 -242 -126zM208 417v113h95v-113h-95z" />
<glyph unicode="&#xa1;" horiz-adv-x="246" d="M78 29l18 302h53l19 -302v-209h-90v209zM171 530v-113h-96v113h96z" />
<glyph unicode="&#xde;" horiz-adv-x="603" d="M585 354c0 -147 -75 -214 -253 -214h-172v-140h-84v710h84v-141h172c178 0 253 -80 253 -215zM319 493h-159v-278h171c132 0 170 42 170 139c0 105 -38 139 -182 139z" />
<glyph unicode="*" horiz-adv-x="568" d="M116 335l106 138l-167 55l25 73l168 -61l-3 179h77l-3 -177l165 56l24 -75l-169 -49l104 -143l-63 -44l-99 144l-103 -142z" />
<glyph unicode="&#x3c;" d="M450 0l-345 298v38l345 298l51 -59l-298 -258l298 -258z" />
<glyph unicode="&#x3e;" d="M495 298l-345 -298l-51 59l298 258l-298 258l51 59l345 -298v-38z" />
<glyph unicode="%" horiz-adv-x="755" d="M100 0l464 710h80l-465 -710h-79zM350 549c0 -91 -16 -175 -137 -175c-120 0 -138 84 -138 175c0 83 18 170 138 170c121 0 137 -87 137 -170zM213 429c74 0 76 66 76 120c0 53 -2 116 -76 116s-77 -63 -77 -116c0 -54 3 -120 77 -120zM665 166c0 -91 -16 -175 -137 -175 c-120 0 -138 84 -138 175c0 83 18 170 138 170c121 0 137 -87 137 -170zM528 46c74 0 76 66 76 120c0 53 -2 116 -76 116s-77 -63 -77 -116c0 -54 3 -120 77 -120z" />
<glyph unicode="@" horiz-adv-x="777" d="M375 130c105 0 115 77 115 139v22c-18 -23 -65 -25 -96 -25c-82 0 -101 -32 -101 -67c0 -38 25 -69 82 -69zM716 295c0 -150 -51 -216 -150 -216c-68 0 -73 54 -73 57c-23 -30 -64 -64 -126 -64c-80 0 -147 45 -147 127c0 112 103 124 204 128c42 1 58 14 58 36 c0 25 -36 59 -82 59c-40 0 -90 -16 -114 -49l-42 40c35 45 94 69 156 69c92 0 157 -51 157 -145v-153c0 -18 0 -44 24 -44c49 0 58 46 58 155c0 171 -73 263 -250 263c-149 0 -267 -123 -267 -289c0 -163 106 -289 267 -289c87 0 139 4 203 36l53 -52 c-71 -46 -142 -59 -258 -59c-211 0 -342 150 -342 364c0 201 144 364 344 364c219 0 327 -114 327 -338z" />
<glyph unicode="{" horiz-adv-x="446" d="M284 587v-124c0 -81 -24 -133 -109 -156c85 -23 109 -74 109 -155v-124c0 -86 30 -110 110 -110h27v-77h-64c-121 0 -153 65 -153 172v141c0 65 -17 117 -119 119v69c102 2 119 55 119 119v141c0 107 32 172 153 172h64v-77h-27c-80 0 -110 -24 -110 -110z" />
<glyph unicode="}" horiz-adv-x="446" d="M162 463v124c0 86 -30 110 -110 110h-27v77h64c121 0 153 -65 153 -172v-141c0 -64 17 -117 119 -119v-69c-102 -2 -119 -54 -119 -119v-141c0 -107 -32 -172 -153 -172h-64v77h27c80 0 110 24 110 110v124c0 81 24 132 109 155c-85 23 -109 75 -109 156z" />
<glyph unicode="~" d="M88 223l-77 61s56 112 176 112c58 0 103 -34 147 -67c28 -21 57 -39 83 -39c51 0 99 77 99 77l73 -56s-53 -113 -172 -113c-59 0 -107 33 -149 67c-29 21 -51 41 -81 41c-50 0 -99 -83 -99 -83z" />
<glyph unicode="&#x3a9;" horiz-adv-x="700" d="M45 0v80h156c-122 91 -146 241 -146 344c0 180 133 295 295 295s295 -115 295 -295c0 -103 -24 -253 -146 -344h156v-80h-281v80c108 49 183 167 183 335c0 133 -94 224 -207 224s-207 -91 -207 -224c0 -168 75 -286 183 -335v-80h-281z" />
<glyph unicode="&#x2126;" horiz-adv-x="700" d="M45 0v80h156c-122 91 -146 241 -146 344c0 180 133 295 295 295s295 -115 295 -295c0 -103 -24 -253 -146 -344h156v-80h-281v80c108 49 183 167 183 335c0 133 -94 224 -207 224s-207 -91 -207 -224c0 -168 75 -286 183 -335v-80h-281z" />
<glyph unicode="&#xe6;" horiz-adv-x="927" d="M885 273v-30h-422c5 -105 71 -180 177 -180c61 0 111 22 155 76l62 -36c-42 -61 -114 -112 -217 -112c-60 0 -159 23 -215 110c-41 -81 -121 -110 -198 -110c-120 0 -185 68 -185 168c0 74 51 155 210 155c42 0 132 7 132 66s-54 86 -115 86c-14 0 -87 -2 -137 -66 l-58 54s58 84 192 84c91 0 146 -35 174 -91c41 55 105 91 194 91c175 0 251 -136 251 -265zM384 248v42c-21 -35 -84 -43 -122 -43c-127 0 -129 -59 -129 -96c0 -52 38 -91 97 -91c148 0 154 107 154 188zM634 466c-82 0 -150 -46 -167 -151h339c-6 48 -36 151 -172 151z " />
<glyph unicode="&#x220f;" horiz-adv-x="756" d="M126 -180v815h-118v75h740v-75h-118v-815h-84v815h-336v-815h-84z" />
<glyph unicode="&#x2211;" horiz-adv-x="669" d="M647 -180h-636v78l278 367l-278 367v78h636v-78h-528l278 -367l-277 -367h527v-78z" />
<glyph unicode="&#xa3;" horiz-adv-x="590" d="M344 719c63 0 115 -27 156 -78l-58 -46c-24 36 -63 49 -98 49c-100 0 -112 -90 -112 -184v-36h215v-75h-215v-110c0 -70 -4 -130 -73 -161h185c63 0 108 19 141 76l59 -52c-48 -78 -122 -102 -200 -102h-294v80c67 29 94 63 94 159v110h-80v75h80v36 c0 127 42 259 200 259z" />
<glyph unicode="+" d="M258 566h85v-236h222v-74h-222v-243h-85v243h-223v74h223v236z" />
<glyph unicode="`" horiz-adv-x="373" d="M192 719l81 -149h-69l-104 149h92z" />
<glyph unicode="&#xb4;" horiz-adv-x="373" d="M100 570l81 149h92l-104 -149h-69z" />
<glyph unicode="&#x2c6;" horiz-adv-x="453" d="M259 719l94 -149h-67l-60 84l-59 -84h-67l93 149h66z" />
<glyph unicode="&#xfe;" horiz-adv-x="598" d="M321 -9c-80 0 -135 35 -170 83v-254h-79v890h79v-254c35 48 107 82 170 82c150 0 257 -128 257 -275c0 -156 -107 -272 -257 -272zM323 466c-106 0 -177 -83 -177 -203c0 -99 72 -200 177 -200s176 98 176 200c0 103 -71 203 -176 203z" />
<glyph unicode="&#x2c7;" horiz-adv-x="453" d="M353 719l-94 -149h-66l-93 149h67l59 -84l60 84h67z" />
<glyph unicode="&#x2da;" horiz-adv-x="401" d="M200 580c22 0 40 17 40 39c0 21 -18 39 -40 39s-39 -18 -39 -39c0 -22 17 -39 39 -39zM200 719c55 0 101 -46 101 -100c0 -55 -46 -100 -101 -100s-100 45 -100 100c0 54 45 100 100 100z" />
<glyph unicode="&#x2020;" horiz-adv-x="552" d="M65 444v85h174v181h74v-181h174v-85h-174v-624h-74v624h-174z" />
<glyph unicode="&#x2021;" horiz-adv-x="552" d="M65 0v85h174v360h-174v85h174v180h74v-180h174v-85h-174v-360h174v-85h-174v-180h-74v180h-174z" />
<glyph unicode="&#x131;" horiz-adv-x="223" d="M151 0h-79v529h79v-529z" />
<glyph unicode="&#xb7;" horiz-adv-x="175" d="M135 379v-113h-95v113h95z" />
<glyph unicode="&#xb8;" horiz-adv-x="409" d="M145 42l63 -16l-23 -81c15 15 33 19 43 19c55 0 81 -32 81 -81c0 -44 -33 -87 -96 -93v58c15 3 40 12 40 37c0 18 -8 26 -32 26c-49 0 -75 -54 -75 -54l-46 25z" />
<glyph unicode="&#xc7;" horiz-adv-x="673" d="M368 66c103 0 168 53 201 130l71 -40c-45 -98 -133 -165 -272 -165c-12 0 -23 1 -38 2l-13 -48c15 15 33 19 43 19c55 0 81 -32 81 -81c0 -44 -33 -87 -96 -93v58c15 3 40 12 40 37c0 18 -8 26 -32 26c-49 0 -75 -54 -75 -54l-46 25l35 125c-131 45 -222 176 -222 348 c0 209 140 364 323 364c134 0 225 -65 272 -166l-71 -41c-35 80 -102 132 -201 132c-136 0 -239 -123 -239 -289c0 -169 103 -289 239 -289z" />
<glyph unicode="&#xe7;" horiz-adv-x="532" d="M40 255c0 166 92 283 258 283c111 0 176 -72 200 -126l-63 -36c-20 35 -62 90 -137 90c-94 0 -179 -53 -179 -211c0 -137 95 -192 174 -192c89 0 132 47 150 84l64 -33c-25 -57 -88 -123 -214 -123c-12 0 -23 1 -34 2l-13 -48c15 15 33 19 43 19c55 0 81 -32 81 -81 c0 -44 -33 -87 -96 -93v58c15 3 40 12 40 37c0 18 -8 26 -32 26c-49 0 -75 -54 -75 -54l-46 25l36 127c-90 36 -157 121 -157 246z" />
<glyph unicode="&#xc5;" horiz-adv-x="648" d="M323 849c55 0 101 -46 101 -100c0 -36 -20 -68 -49 -85l270 -664h-90l-91 230h-280l-91 -230h-90l268 663c-29 18 -48 50 -48 86c0 54 45 100 100 100zM213 305h221l-111 277zM323 710c22 0 40 17 40 39c0 21 -18 39 -40 39s-39 -18 -39 -39s15 -38 35 -39h4z" />
<glyph unicode="&#x221a;" d="M540 889h87l-258 -889h-88l-128 391h-143v84h204l109 -333z" />
<glyph unicode="&#xd0;" horiz-adv-x="699" d="M5 319v75h91v316h221c137 0 338 -59 338 -355s-201 -355 -338 -355h-221v319h-91zM321 75c118 0 250 55 250 280s-132 280 -250 280h-141v-241h107v-75h-107v-244h141z" />
<glyph unicode="^" horiz-adv-x="489" d="M35 474l160 236h100l159 -236h-102l-108 151l-106 -151h-103z" />
<glyph unicode="&#xaa;" horiz-adv-x="328" d="M318 347v-10h-43c-13 0 -23 11 -23 33v7c-19 -19 -54 -46 -111 -46c-85 0 -131 48 -131 119c0 52 36 110 149 110c30 0 94 5 94 47c0 41 -39 61 -82 61c-10 0 -62 -2 -97 -47l-41 38s41 60 136 60c98 0 138 -56 138 -138v-217c0 -9 4 -17 11 -17zM253 513v30 c-15 -25 -60 -31 -87 -31c-90 0 -92 -42 -92 -68c0 -37 27 -64 69 -64c105 0 110 75 110 133z" />
<glyph unicode="&#xba;" horiz-adv-x="425" d="M213 719c105 0 182 -86 182 -195c0 -108 -77 -193 -182 -193s-183 85 -183 193c0 109 78 195 183 195zM213 382c75 0 126 68 126 142s-51 144 -126 144s-126 -70 -126 -144s51 -142 126 -142z" />
<glyph unicode="_" horiz-adv-x="442" d="M446 0v-79h-450v79h450z" />
<glyph unicode="&#x2212;" d="M526 334v-98h-451v98h451z" />
<glyph unicode="&#xac;" d="M518 64h-84v183h-353v75h437v-258z" />
<glyph unicode="&#xd7;" d="M460 69l-160 161l-161 -161l-54 55l160 160l-160 161l54 54l161 -160l160 160l55 -54l-161 -161l161 -160z" />
<glyph unicode="&#x2db;" horiz-adv-x="384" d="M194 26h77s-112 -53 -112 -120c0 -19 13 -36 35 -36c21 0 39 5 54 16l36 -51c-32 -24 -58 -35 -90 -35c-50 0 -94 34 -94 95c0 79 94 131 94 131z" />
<glyph unicode="&#xb5;" horiz-adv-x="602" d="M75 -180v709h79v-346c0 -52 12 -120 114 -120c114 0 180 72 180 195v271h79v-529h-79l-20 65c-34 -40 -86 -74 -161 -74c-48 0 -85 10 -113 27v-198h-79z" />
<glyph unicode="&#x3bc;" horiz-adv-x="602" d="M75 -180v709h79v-346c0 -52 12 -120 114 -120c114 0 180 72 180 195v271h79v-529h-79l-20 65c-34 -40 -86 -74 -161 -74c-48 0 -85 10 -113 27v-198h-79z" />
<glyph unicode="&#x141;" horiz-adv-x="566" d="M278 518l44 -46l-168 -160v-237h395v-75h-479v232l-21 -20l-44 46l65 62v390h84v-310z" />
<glyph unicode="&#x142;" horiz-adv-x="320" d="M179 0h-79v264l-55 -52l-44 46l99 94v358h79v-283l95 91l44 -46l-139 -133v-339z" />
<glyph unicode="&#xa6;" horiz-adv-x="233" d="M73 428v291h87v-291h-87zM73 0v291h87v-291h-87z" />
<glyph unicode="&#xfb01;" horiz-adv-x="493" d="M278 529v-72h-93v-457h-79v457h-101v72h101v38c0 113 42 152 106 152c49 0 66 -9 66 -9v-72s-13 9 -38 9c-51 0 -55 -58 -55 -118h93zM421 0h-79v529h79v-529zM423 601h-83v109h83v-109z" />
<glyph unicode="&#xfb02;" horiz-adv-x="491" d="M278 529v-72h-93v-457h-79v457h-101v72h101v38c0 113 42 152 106 152c49 0 66 -9 66 -9v-72s-13 9 -38 9c-51 0 -55 -58 -55 -118h93zM421 0h-79v710h79v-710z" />
<glyph unicode="&#xf8;" horiz-adv-x="594" d="M168 -73l-80 43l44 82c-57 49 -92 125 -92 212c0 154 109 274 257 274c31 0 61 -5 88 -15l40 74l82 -43l-43 -79c56 -50 90 -125 90 -211c0 -153 -109 -273 -257 -273c-31 0 -60 5 -87 14zM119 264c0 -53 18 -104 51 -142l180 335c-17 6 -35 9 -53 9 c-106 0 -178 -98 -178 -202zM297 63c106 0 178 97 178 201c0 52 -18 102 -49 140l-180 -333c16 -5 33 -8 51 -8z" />
<glyph unicode="&#xc9;" horiz-adv-x="577" d="M545 75v-75h-469v710h459v-75h-375v-229h315v-75h-315v-256h385zM202 790l81 149h92l-104 -149h-69z" />
<glyph unicode="&#xc1;" horiz-adv-x="648" d="M555 0l-91 230h-280l-91 -230h-90l287 710h67l288 -710h-90zM213 305h221l-111 277zM311 790l81 149h92l-104 -149h-69z" />
<glyph unicode="&#xcd;" horiz-adv-x="232" d="M158 0h-84v710h84v-710zM29 790l81 149h92l-104 -149h-69z" />
<glyph unicode="&#xd3;" horiz-adv-x="774" d="M387 -9c-197 0 -342 171 -342 364s145 364 342 364s342 -171 342 -364s-145 -364 -342 -364zM387 643c-151 0 -258 -138 -258 -288s107 -288 258 -288s258 138 258 288s-107 288 -258 288zM353 790l81 149h92l-104 -149h-69z" />
<glyph unicode="&#xda;" horiz-adv-x="710" d="M640 710v-386c0 -191 -58 -333 -288 -333c-232 0 -282 123 -282 333v386h84v-377c0 -142 40 -267 198 -267c154 0 204 121 204 266v378h84zM268 790l81 149h92l-104 -149h-69z" />
<glyph unicode="&#xc0;" horiz-adv-x="648" d="M555 0l-91 230h-280l-91 -230h-90l287 710h67l288 -710h-90zM213 305h221l-111 277zM258 939l81 -149h-69l-104 149h92z" />
<glyph unicode="&#xc8;" horiz-adv-x="577" d="M545 75v-75h-469v710h459v-75h-375v-229h315v-75h-315v-256h385zM294 939l81 -149h-69l-104 149h92z" />
<glyph unicode="&#xcc;" horiz-adv-x="232" d="M158 0h-84v710h84v-710zM121 939l81 -149h-69l-104 149h92z" />
<glyph unicode="&#xd2;" horiz-adv-x="774" d="M387 -9c-197 0 -342 171 -342 364s145 364 342 364s342 -171 342 -364s-145 -364 -342 -364zM387 643c-151 0 -258 -138 -258 -288s107 -288 258 -288s258 138 258 288s-107 288 -258 288zM340 939l81 -149h-69l-104 149h92z" />
<glyph unicode="&#xd9;" horiz-adv-x="710" d="M640 710v-386c0 -191 -58 -333 -288 -333c-232 0 -282 123 -282 333v386h84v-377c0 -142 40 -267 198 -267c154 0 204 121 204 266v378h84zM360 939l81 -149h-69l-104 149h92z" />
<glyph unicode="&#xc2;" horiz-adv-x="648" d="M555 0l-91 230h-280l-91 -230h-90l287 710h67l288 -710h-90zM213 305h221l-111 277zM356 939l94 -149h-67l-60 84l-59 -84h-67l93 149h66z" />
<glyph unicode="&#xca;" horiz-adv-x="577" d="M545 75v-75h-469v710h459v-75h-375v-229h315v-75h-315v-256h385zM321 939l94 -149h-67l-60 84l-59 -84h-67l93 149h66z" />
<glyph unicode="&#xce;" horiz-adv-x="232" d="M158 0h-84v710h84v-710zM149 949l94 -149h-67l-60 84l-59 -84h-67l93 149h66z" />
<glyph unicode="&#xd4;" horiz-adv-x="774" d="M387 -9c-197 0 -342 171 -342 364s145 364 342 364s342 -171 342 -364s-145 -364 -342 -364zM387 643c-151 0 -258 -138 -258 -288s107 -288 258 -288s258 138 258 288s-107 288 -258 288zM420 939l94 -149h-67l-60 84l-59 -84h-67l93 149h66z" />
<glyph unicode="&#xdb;" horiz-adv-x="710" d="M640 710v-386c0 -191 -58 -333 -288 -333c-232 0 -282 123 -282 333v386h84v-377c0 -142 40 -267 198 -267c154 0 204 121 204 266v378h84zM387 939l94 -149h-67l-60 84l-59 -84h-67l93 149h66z" />
<glyph unicode="&#xe1;" horiz-adv-x="516" d="M476 14v-14h-60c-19 0 -33 15 -33 46v11c-27 -28 -76 -66 -156 -66c-120 0 -185 68 -185 168c0 74 51 155 210 155c42 0 132 7 132 66s-54 86 -115 86c-14 0 -87 -2 -137 -66l-58 54s58 84 192 84c138 0 195 -79 195 -194v-306c0 -12 5 -24 15 -24zM384 248v42 c-21 -35 -84 -43 -122 -43c-127 0 -129 -59 -129 -96c0 -52 38 -91 97 -91c148 0 154 107 154 188zM235 609l81 149h92l-104 -149h-69z" />
<glyph unicode="&#xe0;" horiz-adv-x="516" d="M476 14v-14h-60c-19 0 -33 15 -33 46v11c-27 -28 -76 -66 -156 -66c-120 0 -185 68 -185 168c0 74 51 155 210 155c42 0 132 7 132 66s-54 86 -115 86c-14 0 -87 -2 -137 -66l-58 54s58 84 192 84c138 0 195 -79 195 -194v-306c0 -12 5 -24 15 -24zM384 248v42 c-21 -35 -84 -43 -122 -43c-127 0 -129 -59 -129 -96c0 -52 38 -91 97 -91c148 0 154 107 154 188zM223 758l81 -149h-69l-104 149h92z" />
<glyph unicode="&#xe2;" horiz-adv-x="516" d="M476 14v-14h-60c-19 0 -33 15 -33 46v11c-27 -28 -76 -66 -156 -66c-120 0 -185 68 -185 168c0 74 51 155 210 155c42 0 132 7 132 66s-54 86 -115 86c-14 0 -87 -2 -137 -66l-58 54s58 84 192 84c138 0 195 -79 195 -194v-306c0 -12 5 -24 15 -24zM384 248v42 c-21 -35 -84 -43 -122 -43c-127 0 -129 -59 -129 -96c0 -52 38 -91 97 -91c148 0 154 107 154 188zM299 758l94 -149h-67l-60 84l-59 -84h-67l93 149h66z" />
<glyph unicode="&#xe9;" horiz-adv-x="583" d="M541 273v-30h-422c5 -105 71 -180 177 -180c61 0 111 22 155 76l62 -36c-42 -61 -114 -112 -217 -112c-87 0 -256 49 -256 270c0 143 79 277 250 277c175 0 251 -136 251 -265zM290 466c-82 0 -150 -46 -167 -151h339c-6 48 -36 151 -172 151zM256 609l81 149h92 l-104 -149h-69z" />
<glyph unicode="&#xe8;" horiz-adv-x="583" d="M541 273v-30h-422c5 -105 71 -180 177 -180c61 0 111 22 155 76l62 -36c-42 -61 -114 -112 -217 -112c-87 0 -256 49 -256 270c0 143 79 277 250 277c175 0 251 -136 251 -265zM290 466c-82 0 -150 -46 -167 -151h339c-6 48 -36 151 -172 151zM243 758l81 -149h-69 l-104 149h92z" />
<glyph unicode="&#xea;" horiz-adv-x="583" d="M541 273v-30h-422c5 -105 71 -180 177 -180c61 0 111 22 155 76l62 -36c-42 -61 -114 -112 -217 -112c-87 0 -256 49 -256 270c0 143 79 277 250 277c175 0 251 -136 251 -265zM290 466c-82 0 -150 -46 -167 -151h339c-6 48 -36 151 -172 151zM323 758l94 -149h-67 l-60 84l-59 -84h-67l93 149h66z" />
<glyph unicode="&#xed;" horiz-adv-x="223" d="M151 0h-79v529h79v-529zM25 609l81 149h92l-104 -149h-69z" />
<glyph unicode="&#xec;" horiz-adv-x="223" d="M151 0h-79v529h79v-529zM117 758l81 -149h-69l-104 149h92z" />
<glyph unicode="&#xee;" horiz-adv-x="223" d="M151 0h-79v529h79v-529zM144 758l94 -149h-67l-60 84l-59 -84h-67l93 149h66z" />
<glyph unicode="&#xf3;" horiz-adv-x="594" d="M297 538c148 0 257 -120 257 -274c0 -153 -109 -273 -257 -273s-257 120 -257 273c0 154 109 274 257 274zM297 63c106 0 178 97 178 201s-72 202 -178 202s-178 -98 -178 -202s72 -201 178 -201zM263 609l81 149h92l-104 -149h-69z" />
<glyph unicode="&#xf2;" horiz-adv-x="594" d="M297 538c148 0 257 -120 257 -274c0 -153 -109 -273 -257 -273s-257 120 -257 273c0 154 109 274 257 274zM297 63c106 0 178 97 178 201s-72 202 -178 202s-178 -98 -178 -202s72 -201 178 -201zM250 758l81 -149h-69l-104 149h92z" />
<glyph unicode="&#xf4;" horiz-adv-x="594" d="M297 538c148 0 257 -120 257 -274c0 -153 -109 -273 -257 -273s-257 120 -257 273c0 154 109 274 257 274zM297 63c106 0 178 97 178 201s-72 202 -178 202s-178 -98 -178 -202s72 -201 178 -201zM330 758l94 -149h-67l-60 84l-59 -84h-67l93 149h66z" />
<glyph unicode="&#xfa;" horiz-adv-x="594" d="M70 181v348h79v-346c0 -52 12 -120 114 -120c114 0 180 72 180 195v271h79v-529h-79l-20 65c-34 -40 -86 -74 -161 -74c-148 0 -192 98 -192 190zM210 609l81 149h92l-104 -149h-69z" />
<glyph unicode="&#xf9;" horiz-adv-x="594" d="M70 181v348h79v-346c0 -52 12 -120 114 -120c114 0 180 72 180 195v271h79v-529h-79l-20 65c-34 -40 -86 -74 -161 -74c-148 0 -192 98 -192 190zM302 758l81 -149h-69l-104 149h92z" />
<glyph unicode="&#xfb;" horiz-adv-x="594" d="M70 181v348h79v-346c0 -52 12 -120 114 -120c114 0 180 72 180 195v271h79v-529h-79l-20 65c-34 -40 -86 -74 -161 -74c-148 0 -192 98 -192 190zM329 758l94 -149h-67l-60 84l-59 -84h-67l93 149h66z" />
<glyph unicode="&#xe5;" horiz-adv-x="516" d="M476 14v-14h-60c-19 0 -33 15 -33 46v11c-27 -28 -76 -66 -156 -66c-120 0 -185 68 -185 168c0 74 51 155 210 155c42 0 132 7 132 66s-54 86 -115 86c-14 0 -87 -2 -137 -66l-58 54s58 84 192 84c138 0 195 -79 195 -194v-306c0 -12 5 -24 15 -24zM384 248v42 c-21 -35 -84 -43 -122 -43c-127 0 -129 -59 -129 -96c0 -52 38 -91 97 -91c148 0 154 107 154 188zM266 674c22 0 40 17 40 39c0 21 -18 39 -40 39s-39 -18 -39 -39c0 -22 17 -39 39 -39zM266 813c55 0 101 -46 101 -100c0 -55 -46 -100 -101 -100s-100 45 -100 100 c0 54 45 100 100 100z" />
<glyph unicode="&#x2026;" horiz-adv-x="685" d="M155 113v-113h-95v113h95zM390 113v-113h-95v113h95zM625 113v-113h-95v113h95z" />
<glyph unicode="&#x153;" horiz-adv-x="1019" d="M977 273v-30h-422c5 -105 71 -180 177 -180c61 0 111 22 155 76l62 -36c-42 -61 -114 -112 -217 -112c-62 0 -166 25 -221 119c-45 -72 -122 -119 -214 -119c-148 0 -257 120 -257 273c0 154 109 274 257 274c93 0 171 -48 216 -122c39 72 108 122 213 122 c175 0 251 -136 251 -265zM297 63c106 0 178 97 178 201s-72 202 -178 202s-178 -98 -178 -202s72 -201 178 -201zM726 466c-82 0 -150 -46 -167 -151h339c-6 48 -36 151 -172 151z" />
<glyph unicode="&#x152;" horiz-adv-x="1151" d="M1119 75v-75h-469v122c-60 -78 -151 -131 -263 -131c-197 0 -342 171 -342 364s145 364 342 364c112 0 203 -53 263 -131v122h459v-75h-375v-229h315v-75h-315v-256h385zM387 635c-151 0 -258 -130 -258 -280s107 -280 258 -280s258 130 258 280s-107 280 -258 280z" />
<glyph unicode="&#xc6;" horiz-adv-x="891" d="M859 75v-75h-469v230h-192l-109 -230h-92l341 710h511v-75h-375v-229h315v-75h-315v-256h385zM232 305h158v330z" />
<glyph unicode="&#x2dd;" horiz-adv-x="536" d="M100 570l81 149h92l-104 -149h-69zM263 570l81 149h92l-104 -149h-69z" />
<glyph unicode="&#xd8;" horiz-adv-x="774" d="M387 -9c-67 0 -128 19 -179 53l-73 -99l-73 54l77 104c-59 67 -94 157 -94 252c0 193 145 364 342 364c64 0 122 -18 172 -49l62 83l76 -53l-67 -89c62 -67 99 -159 99 -256c0 -193 -145 -364 -342 -364zM387 67c151 0 258 138 258 288c0 70 -23 137 -64 189l-326 -437 c38 -25 82 -40 132 -40zM387 643c-151 0 -258 -138 -258 -288c0 -68 22 -133 60 -185l323 437c-36 22 -79 36 -125 36z" />
<glyph unicode="&#x20ac;" horiz-adv-x="590" d="M344 70c85 0 118 26 153 81l71 -42c-49 -79 -118 -118 -224 -118c-169 0 -231 116 -245 264h-59v60h55v80h-55v60h59c14 148 99 264 245 264c117 0 172 -43 224 -119l-71 -46c-32 57 -83 86 -153 86c-97 0 -144 -84 -156 -185h236l-14 -60h-227v-80h208l-13 -60h-191 c12 -103 51 -185 157 -185z" />
<glyph unicode="&#x2d8;" horiz-adv-x="463" d="M287 714h76c0 -68 -62 -113 -132 -113s-131 45 -131 113h75c0 -29 28 -50 56 -50c31 0 55 21 56 50z" />
<glyph unicode="&#xb0;" horiz-adv-x="466" d="M100 586c0 73 60 133 133 133s133 -60 133 -133s-60 -133 -133 -133s-133 60 -133 133zM176 586c0 -31 26 -57 57 -57s57 26 57 57s-26 57 -57 57s-57 -26 -57 -57z" />
<glyph unicode="&#x2039;" horiz-adv-x="332" d="M228 48l-188 225v32l187 224l66 -55l-155 -185l156 -186z" />
<glyph unicode="&#x203a;" horiz-adv-x="332" d="M294 273l-188 -225l-66 55l156 186l-155 185l66 55l187 -224v-32z" />
<glyph unicode="&#x3c0;" horiz-adv-x="585" d="M186 0h-86v452h-92v77h545v-77h-103v-308c0 -50 12 -67 51 -67c13 0 30 2 52 7v-84c-19 -6 -36 -9 -52 -9c-102 0 -137 62 -137 153v308h-178v-452z" />
<glyph unicode="&#x160;" horiz-adv-x="611" d="M18 137l70 37c36 -58 111 -107 235 -107c125 0 173 65 173 133c0 225 -460 15 -460 314c0 151 127 205 263 205c137 0 207 -82 228 -110l-65 -40c-49 55 -101 74 -163 74c-87 0 -178 -27 -178 -129c0 -214 459 -2 459 -314c0 -129 -112 -209 -257 -209 c-149 0 -262 59 -305 146zM432 939l-94 -149h-66l-93 149h67l59 -84l60 84h67z" />
<glyph unicode="&#x161;" horiz-adv-x="473" d="M26 103l68 30c17 -31 65 -70 151 -70c48 0 121 10 121 82c0 133 -323 30 -323 239c0 128 126 154 194 154c120 0 174 -69 178 -74l-56 -46s-52 48 -122 48c-56 0 -115 -14 -115 -82c0 -126 323 -27 323 -239c0 -65 -46 -154 -200 -154c-124 0 -195 68 -219 112zM363 758 l-94 -149h-66l-93 149h67l59 -84l60 84h67z" />
<glyph unicode="&#x17d;" horiz-adv-x="568" d="M127 75h418v-75h-522v75l406 560h-388v75h492v-75zM410 940l-94 -149h-66l-93 149h67l59 -84l60 84h67z" />
<glyph unicode="&#x17e;" horiz-adv-x="420" d="M114 72h283v-72h-377v72l276 385h-258v72h353v-71zM336 759l-94 -149h-66l-93 149h67l59 -84l60 84h67z" />
<glyph unicode="&#xdd;" horiz-adv-x="576" d="M289 362l191 348h95l-245 -443v-267h-84v268l-245 442h96zM201 751l81 149h92l-104 -149h-69z" />
<glyph unicode="&#xfd;" horiz-adv-x="525" d="M521 529l-223 -529c-76 -182 -129 -189 -232 -189v72c100 0 121 26 157 121l-217 525h87l168 -426l174 426h86zM176 570l81 149h92l-104 -149h-69z" />
<glyph unicode="&#x2264;" d="M457 211l-365 268v38l365 258l51 -59l-318 -218l318 -228zM508 98v-98h-416v98h416z" />
<glyph unicode="&#x2265;" d="M508 479l-365 -268l-51 59l318 228l-318 218l51 59l365 -258v-38zM92 0v98h416v-98h-416z" />
<glyph unicode="&#xb6;" horiz-adv-x="725" d="M285 -122v406c-118 0 -213 94 -213 212c0 119 95 214 213 214h340v-83h-88v-749h-80v749h-91v-749h-81z" />
<glyph unicode="&#xdf;" horiz-adv-x="558" d="M238 -9v76c127 0 177 31 177 125c0 91 -67 121 -163 121v84c69 0 125 41 125 117c0 71 -34 129 -103 129c-88 0 -115 -58 -115 -139v-504h-84v504c0 134 63 215 204 215c114 0 182 -81 182 -205c0 -57 -33 -122 -91 -149c59 -10 129 -72 129 -173 c0 -145 -71 -201 -261 -201z" />
<glyph unicode="&#xab;" horiz-adv-x="569" d="M233 48l-188 225v32l187 224l66 -55l-155 -185l156 -186zM443 48l-188 225v32l187 224l66 -55l-155 -185l156 -186z" />
<glyph unicode="&#xbb;" horiz-adv-x="569" d="M524 273l-188 -225l-66 55l156 186l-155 185l66 55l187 -224v-32zM314 273l-188 -225l-66 55l156 186l-155 185l66 55l187 -224v-32z" />
<glyph unicode="&#xa2;" horiz-adv-x="590" d="M276 625v94h59v-90c103 -5 165 -74 188 -126l-63 -36c-19 33 -58 84 -125 89v-401c77 5 116 48 133 83l64 -33c-24 -55 -82 -117 -197 -123v-82h-59v85c-116 18 -211 112 -211 261s75 259 211 279zM144 346c0 -114 65 -171 132 -187v393c-74 -17 -132 -75 -132 -206z" />
<glyph unicode="&#x2044;" horiz-adv-x="444" d="M-50 0l464 710h80l-465 -710h-79z" />
<glyph unicode="&#x2030;" horiz-adv-x="920" d="M40 0l464 710h80l-465 -710h-79zM283 570c0 -81 -15 -156 -120 -156c-106 0 -123 75 -123 156c0 72 17 149 123 149c105 0 120 -77 120 -149zM163 462c63 0 65 59 65 108c0 46 -2 101 -65 101c-67 0 -68 -55 -68 -101c0 -49 1 -108 68 -108zM588 147 c0 -81 -15 -156 -120 -156c-106 0 -123 75 -123 156c0 72 17 149 123 149c105 0 120 -77 120 -149zM468 39c63 0 65 59 65 108c0 46 -2 101 -65 101c-67 0 -68 -55 -68 -101c0 -49 1 -108 68 -108zM875 147c0 -81 -15 -156 -120 -156c-106 0 -123 75 -123 156 c0 72 17 149 123 149c105 0 120 -77 120 -149zM755 39c63 0 65 59 65 108c0 46 -2 101 -65 101c-67 0 -68 -55 -68 -101c0 -49 1 -108 68 -108z" />
<glyph unicode="&#x2022;" horiz-adv-x="300" d="M50 288c0 54 44 100 100 100c55 0 100 -46 100 -100c0 -55 -45 -100 -100 -100c-56 0 -100 45 -100 100z" />
<glyph unicode="&#x2248;" d="M88 128l-77 61s56 112 176 112c58 0 103 -34 147 -67c28 -21 57 -39 83 -39c51 0 99 77 99 77l73 -56s-53 -113 -172 -113c-59 0 -107 33 -149 67c-29 21 -51 41 -81 41c-50 0 -99 -83 -99 -83zM88 388l-77 61s56 112 176 112c58 0 103 -34 147 -67c28 -21 57 -39 83 -39 c51 0 99 77 99 77l73 -56s-53 -113 -172 -113c-59 0 -107 33 -149 67c-29 21 -51 41 -81 41c-50 0 -99 -83 -99 -83z" />
<glyph unicode="&#x394;" d="M621 0h-641l290 710h61zM300 564l-200 -489h400z" />
<glyph unicode="&#x2206;" d="M621 0h-641l290 710h61zM300 564l-200 -489h400z" />
<glyph unicode="&#x25ca;" d="M324 0h-48l-216 361l216 349h48l216 -349zM300 589l-142 -228l142 -238l142 238z" />
<glyph unicode="&#xf7;" d="M348 113v-113h-95v113h95zM348 535v-113h-95v113h95zM526 317v-98h-451v98h451z" />
<glyph unicode="&#xa5;" horiz-adv-x="590" d="M524 357v-90h-187v-68h187v-88h-187v-111h-84v111h-187v88h187v68h-187v90h141l-179 353h96l172 -348l171 348h95l-180 -353h142z" />
<glyph unicode="&#xb1;" d="M255 559h91v-172h169v-75h-169v-172h-91v172h-171v75h171v172zM515 82v-82h-431v82h431z" />
<glyph unicode="&#x221e;" horiz-adv-x="624" d="M440 409c95 0 134 -61 134 -135s-35 -134 -130 -134c-54 0 -99 47 -133 85c-34 -38 -75 -85 -130 -85c-94 0 -131 60 -131 134s40 135 134 135c46 0 88 -43 127 -86c37 41 85 86 129 86zM181 197c38 0 78 51 97 77c0 0 -48 78 -97 78c-48 0 -67 -39 -67 -78 c0 -40 19 -77 67 -77zM444 197c47 0 66 37 66 77c0 39 -19 78 -66 78c-50 0 -97 -78 -97 -78c19 -26 59 -77 97 -77z" />
<glyph unicode="&#xae;" horiz-adv-x="798" d="M35 355c0 201 163 364 364 364s364 -163 364 -364s-163 -364 -364 -364s-364 163 -364 364zM110 355c0 -160 127 -292 289 -292s289 132 289 292s-127 292 -289 292s-289 -132 -289 -292zM496 157l-107 152h-82v-152h-66v396h168c92 0 139 -38 139 -120 c0 -72 -27 -102 -86 -118l113 -158h-79zM386 367c72 0 97 8 97 66c0 54 -25 62 -89 62h-87v-128h79z" />
<glyph unicode="&#xa9;" horiz-adv-x="798" d="M35 355c0 201 163 364 364 364s364 -163 364 -364s-163 -364 -364 -364s-364 163 -364 364zM110 355c0 -160 127 -292 289 -292s289 132 289 292s-127 292 -289 292s-289 -132 -289 -292zM210 347c0 125 68 212 192 212c84 0 132 -54 150 -94l-54 -29 c-15 26 -34 61 -96 61s-125 -31 -125 -150c0 -94 63 -133 122 -133c66 0 92 30 106 58l54 -28c-19 -43 -66 -92 -160 -92c-100 0 -189 71 -189 195z" />
<glyph unicode="&#x201c;" horiz-adv-x="323" d="M40 476v106c0 66 5 96 66 128l20 -40c-37 -25 -39 -45 -39 -75v-6h48v-113h-95zM190 476v106c0 66 5 96 66 128l20 -40c-37 -25 -39 -45 -39 -75v-6h48v-113h-95z" />
<glyph unicode="&#x201d;" horiz-adv-x="323" d="M285 710v-106c0 -66 -5 -96 -66 -128l-20 40c37 25 39 45 39 75v6h-48v113h95zM135 710v-106c0 -66 -5 -96 -66 -128l-20 40c37 25 39 45 39 75v6h-48v113h95z" />
<glyph unicode="&#x2018;" horiz-adv-x="173" d="M40 476v106c0 66 5 96 66 128l20 -40c-37 -25 -39 -45 -39 -75v-6h48v-113h-95z" />
<glyph unicode="&#x2019;" horiz-adv-x="173" d="M135 710v-106c0 -66 -5 -96 -66 -128l-20 40c37 25 39 45 39 75v6h-48v113h95z" />
<glyph unicode="&#x2260;" d="M529 421v-90h-152l-55 -135h207v-90h-244l-75 -186h-86l75 186h-128v90h165l55 135h-220v90h256l69 169h86l-69 -169h116z" />
<glyph unicode="&#x2122;" horiz-adv-x="694" d="M290 710v-51h-115v-309h-58v309h-115v51h288zM602 710h92v-360h-58v286l-106 -286h-47l-106 286v-286h-58v360h92l96 -278z" />
<glyph unicode="&#xa8;" horiz-adv-x="468" d="M193 616h-93v103h93v-103zM368 616h-93v103h93v-103z" />
<glyph unicode="&#xd6;" horiz-adv-x="774" d="M387 -9c-197 0 -342 171 -342 364s145 364 342 364s342 -171 342 -364s-145 -364 -342 -364zM387 643c-151 0 -258 -138 -258 -288s107 -288 258 -288s258 138 258 288s-107 288 -258 288zM346 790h-93v103h93v-103zM521 790h-93v103h93v-103z" />
<glyph unicode="&#xc4;" horiz-adv-x="648" d="M555 0l-91 230h-280l-91 -230h-90l287 710h67l288 -710h-90zM213 305h221l-111 277zM283 790h-93v103h93v-103zM458 790h-93v103h93v-103z" />
<glyph unicode="&#xdc;" horiz-adv-x="710" d="M640 710v-386c0 -191 -58 -333 -288 -333c-232 0 -282 123 -282 333v386h84v-377c0 -142 40 -267 198 -267c154 0 204 121 204 266v378h84zM314 790h-93v103h93v-103zM489 790h-93v103h93v-103z" />
<glyph unicode="&#xe4;" horiz-adv-x="516" d="M476 14v-14h-60c-19 0 -33 15 -33 46v11c-27 -28 -76 -66 -156 -66c-120 0 -185 68 -185 168c0 74 51 155 210 155c42 0 132 7 132 66s-54 86 -115 86c-14 0 -87 -2 -137 -66l-58 54s58 84 192 84c138 0 195 -79 195 -194v-306c0 -12 5 -24 15 -24zM384 248v42 c-21 -35 -84 -43 -122 -43c-127 0 -129 -59 -129 -96c0 -52 38 -91 97 -91c148 0 154 107 154 188zM226 609h-93v103h93v-103zM401 609h-93v103h93v-103z" />
<glyph unicode="&#xeb;" horiz-adv-x="583" d="M541 273v-30h-422c5 -105 71 -180 177 -180c61 0 111 22 155 76l62 -36c-42 -61 -114 -112 -217 -112c-87 0 -256 49 -256 270c0 143 79 277 250 277c175 0 251 -136 251 -265zM290 466c-82 0 -150 -46 -167 -151h339c-6 48 -36 151 -172 151zM250 609h-93v103h93v-103z M425 609h-93v103h93v-103z" />
<glyph unicode="&#xef;" horiz-adv-x="224" d="M151 0h-79v529h79v-529zM71 609h-93v103h93v-103zM246 609h-93v103h93v-103z" />
<glyph unicode="&#xf6;" horiz-adv-x="594" d="M297 538c148 0 257 -120 257 -274c0 -153 -109 -273 -257 -273s-257 120 -257 273c0 154 109 274 257 274zM297 63c106 0 178 97 178 201s-72 202 -178 202s-178 -98 -178 -202s72 -201 178 -201zM256 609h-93v103h93v-103zM431 609h-93v103h93v-103z" />
<glyph unicode="&#xfc;" horiz-adv-x="594" d="M70 181v348h79v-346c0 -52 12 -120 114 -120c114 0 180 72 180 195v271h79v-529h-79l-20 65c-34 -40 -86 -74 -161 -74c-148 0 -192 98 -192 190zM255 609h-93v103h93v-103zM430 609h-93v103h93v-103z" />
<glyph unicode="&#x201e;" horiz-adv-x="320" d="M285 113v-106c0 -66 -5 -96 -66 -128l-20 40c37 25 39 45 39 75v6h-48v113h95zM135 113v-106c0 -66 -5 -96 -66 -128l-20 40c37 25 39 45 39 75v6h-48v113h95z" />
<glyph unicode="&#x201a;" horiz-adv-x="170" d="M135 113v-106c0 -66 -5 -96 -66 -128l-20 40c37 25 39 45 39 75v6h-48v113h95z" />
<glyph unicode="&#xcb;" horiz-adv-x="577" d="M545 75v-75h-469v710h459v-75h-375v-229h315v-75h-315v-256h385zM272 790h-93v103h93v-103zM447 790h-93v103h93v-103z" />
<glyph unicode="&#xcf;" horiz-adv-x="232" d="M158 0h-84v710h84v-710zM75 790h-93v103h93v-103zM250 790h-93v103h93v-103z" />
<glyph unicode="&#x2d9;" horiz-adv-x="293" d="M193 719v-107h-93v107h93z" />
<glyph unicode="&#xff;" horiz-adv-x="525" d="M521 529l-223 -529c-76 -182 -129 -189 -232 -189v72c100 0 121 26 157 121l-217 525h87l168 -426l174 426h86zM221 609h-93v103h93v-103zM396 609h-93v103h93v-103z" />
<glyph unicode="&#x178;" horiz-adv-x="576" d="M289 362l191 348h95l-245 -443v-267h-84v268l-245 442h96zM247 790h-93v103h93v-103zM422 790h-93v103h93v-103z" />
<glyph unicode="&#x192;" d="M462 719c23 0 44 -3 61 -9v-76c-20 8 -49 9 -61 9c-45 0 -70 -27 -79 -72l-14 -67h130v-76h-146l-103 -485c-29 -108 -79 -132 -165 -132c-15 0 -34 3 -47 9v76c13 -4 29 -9 44 -9c48 0 72 23 86 74l98 467h-97v76h113l18 83c19 91 86 132 162 132z" />
<glyph unicode="&#x222b;" horiz-adv-x="435" d="M379 719c23 0 44 -3 61 -9v-76c-20 8 -49 9 -61 9c-45 0 -70 -27 -79 -72l-133 -628c-29 -108 -79 -132 -165 -132c-15 0 -34 3 -47 9v76c13 -4 29 -9 44 -9c48 0 72 23 86 74l132 626c19 91 86 132 162 132z" />
<glyph unicode="&#xa7;" horiz-adv-x="590" d="M94 602c0 119 106 159 210 159c72 0 142 -26 192 -86l-62 -45c-37 40 -92 56 -130 56c-100 0 -126 -44 -126 -84c0 -123 318 -35 318 -251c0 -54 -27 -94 -60 -122c35 -23 60 -57 60 -115c0 -119 -106 -159 -210 -159c-72 0 -142 26 -192 86l62 45c37 -40 92 -56 130 -56 c100 0 126 44 126 84c0 123 -318 35 -318 251c0 54 26 94 59 122c-35 23 -59 57 -59 115zM250 450c-36 -18 -72 -35 -72 -85c0 -69 81 -79 162 -99c40 21 72 38 72 85c0 69 -82 79 -162 99z" />
<glyph unicode="&#x2dc;" horiz-adv-x="534" d="M148 582l-48 35s42 71 101 71c58 0 87 -57 130 -57c28 0 56 40 56 40l47 -34s-42 -68 -100 -68c-60 0 -91 57 -130 57c-28 0 -56 -44 -56 -44z" />
<glyph unicode="&#xd1;" horiz-adv-x="691" d="M531 710h84v-710h-84l-371 572v-572h-84v710h84l371 -572v572zM226 801l-48 35s42 71 101 71c58 0 87 -57 130 -57c28 0 56 40 56 40l47 -34s-42 -68 -100 -68c-60 0 -91 57 -130 57c-28 0 -56 -44 -56 -44z" />
<glyph unicode="&#xe3;" horiz-adv-x="516" d="M476 14v-14h-60c-19 0 -33 15 -33 46v11c-27 -28 -76 -66 -156 -66c-120 0 -185 68 -185 168c0 74 51 155 210 155c42 0 132 7 132 66s-54 86 -115 86c-14 0 -87 -2 -137 -66l-58 54s58 84 192 84c138 0 195 -79 195 -194v-306c0 -12 5 -24 15 -24zM384 248v42 c-21 -35 -84 -43 -122 -43c-127 0 -129 -59 -129 -96c0 -52 38 -91 97 -91c148 0 154 107 154 188zM149 620l-48 35s42 71 101 71c58 0 87 -57 130 -57c28 0 56 40 56 40l47 -34s-42 -68 -100 -68c-60 0 -91 57 -130 57c-28 0 -56 -44 -56 -44z" />
<glyph unicode="&#xf1;" horiz-adv-x="586" d="M522 348v-348h-79v346c0 52 -12 120 -114 120c-114 0 -180 -72 -180 -195v-271h-79v529h79l20 -65c34 40 86 74 161 74c148 0 192 -98 192 -190zM174 620l-48 35s42 71 101 71c58 0 87 -57 130 -57c28 0 56 40 56 40l47 -34s-42 -68 -100 -68c-60 0 -91 57 -130 57 c-28 0 -56 -44 -56 -44z" />
<glyph unicode="&#xf5;" horiz-adv-x="594" d="M297 538c148 0 257 -120 257 -274c0 -153 -109 -273 -257 -273s-257 120 -257 273c0 154 109 274 257 274zM297 63c106 0 178 97 178 201s-72 202 -178 202s-178 -98 -178 -202s72 -201 178 -201zM178 620l-48 35s42 71 101 71c58 0 87 -57 130 -57c28 0 56 40 56 40 l47 -34s-42 -68 -100 -68c-60 0 -91 57 -130 57c-28 0 -56 -44 -56 -44z" />
<glyph unicode="&#xc3;" horiz-adv-x="648" d="M555 0l-91 230h-280l-91 -230h-90l287 710h67l288 -710h-90zM213 305h221l-111 277zM205 801l-48 35s42 71 101 71c58 0 87 -57 130 -57c28 0 56 40 56 40l47 -34s-42 -68 -100 -68c-60 0 -91 57 -130 57c-28 0 -56 -44 -56 -44z" />
<glyph unicode="&#xd5;" horiz-adv-x="774" d="M387 -9c-197 0 -342 171 -342 364s145 364 342 364s342 -171 342 -364s-145 -364 -342 -364zM387 643c-151 0 -258 -138 -258 -288s107 -288 258 -288s258 138 258 288s-107 288 -258 288zM268 801l-48 35s42 71 101 71c58 0 87 -57 130 -57c28 0 56 40 56 40l47 -34 s-42 -68 -100 -68c-60 0 -91 57 -130 57c-28 0 -56 -44 -56 -44z" />
<glyph unicode="&#xbd;" horiz-adv-x="850" d="M89 0l464 710h80l-465 -710h-79zM114 719h68v-440h-68v302h-82v63c4 0 82 0 82 75zM573 63h219v-63h-288v65c0 145 206 164 206 257c0 50 -33 65 -61 65c-46 0 -75 -18 -101 -46l-42 47c37 38 79 62 143 62c83 0 129 -46 129 -128c0 -143 -205 -153 -205 -259z" />
<glyph unicode="&#xb9;" horiz-adv-x="390" d="M202 719h68v-440h-68v302h-82v63c4 0 82 0 82 75z" />
<glyph unicode="&#xb2;" horiz-adv-x="390" d="M114 332h219v-63h-288v65c0 145 206 164 206 257c0 50 -33 65 -61 65c-46 0 -75 -18 -101 -46l-42 47c37 38 79 62 143 62c83 0 129 -46 129 -128c0 -143 -205 -153 -205 -259z" />
<glyph unicode="&#xbc;" horiz-adv-x="850" d="M135 0l464 710h80l-465 -710h-79zM160 719h68v-440h-68v302h-82v63c4 0 82 0 82 75zM760 141v-63h-59v-78h-68v78h-191v63l165 298h71l-164 -298h119v134h68v-134h59z" />
<glyph unicode="&#xbe;" horiz-adv-x="850" d="M182 0l464 710h80l-465 -710h-79zM807 141v-63h-59v-78h-68v78h-191v63l165 298h71l-164 -298h119v134h68v-134h59zM254 509c57 -17 78 -52 78 -103c0 -80 -44 -142 -149 -142c-54 0 -121 23 -153 70l47 42c24 -31 52 -49 106 -49c45 0 81 23 81 79c0 62 -42 72 -97 72 v62c49 0 85 7 85 59c0 39 -28 57 -69 57c-35 0 -67 -12 -97 -46l-45 41c33 47 89 68 142 68c65 0 137 -35 137 -120c0 -38 -20 -75 -66 -90z" />
<glyph unicode="&#xb3;" horiz-adv-x="390" d="M269 509c57 -17 78 -52 78 -103c0 -80 -44 -142 -149 -142c-54 0 -121 23 -153 70l47 42c24 -31 52 -49 106 -49c45 0 81 23 81 79c0 62 -42 72 -97 72v62c49 0 85 7 85 59c0 39 -28 57 -69 57c-35 0 -67 -12 -97 -46l-45 41c33 47 89 68 142 68c65 0 137 -35 137 -120 c0 -38 -20 -75 -66 -90z" />
<glyph unicode="&#x2202;" horiz-adv-x="551" d="M25 245c0 165 96 284 225 284c58 0 95 -18 128 -59c-18 102 -109 167 -203 167v82c269 0 311 -217 311 -431c0 -177 -58 -297 -224 -297c-147 0 -237 114 -237 254zM250 447c-90 0 -135 -83 -135 -202c0 -96 52 -172 147 -172c135 0 141 146 141 243 c-35 65 -71 131 -153 131z" />
<glyph unicode="&#xf0;" horiz-adv-x="555" d="M334 592h-190v82h138c-7 9 -14 18 -20 27l72 56c24 -26 45 -54 64 -83h74v-82h-28c48 -102 71 -218 71 -341c0 -147 -90 -260 -236 -260c-161 0 -236 113 -239 264c0 156 82 274 236 274c36 0 72 -9 104 -34c-12 32 -28 65 -46 97zM132 255c0 -105 33 -182 147 -182 c110 0 146 86 146 182c-1 114 -43 193 -149 193c-117 0 -144 -96 -144 -193z" />
<glyph unicode="A" horiz-adv-x="648" d="M555 0l-91 230h-280l-91 -230h-90l287 710h67l288 -710h-90zM213 305h221l-111 277z" />
<glyph unicode="B" horiz-adv-x="674" d="M524 381c9 -4 115 -50 115 -172c0 -136 -101 -209 -229 -209h-334v710h325c138 0 205 -87 205 -193c0 -80 -59 -125 -82 -136zM398 634h-238v-227h244c71 0 116 22 116 111s-62 116 -122 116zM407 75c106 0 148 42 148 137c0 83 -59 120 -141 120h-254v-257h247z" />
<glyph unicode="C" horiz-adv-x="673" d="M368 66c103 0 168 53 201 130l71 -40c-45 -98 -133 -165 -272 -165c-183 0 -323 151 -323 364c0 209 140 364 323 364c134 0 225 -65 272 -166l-71 -41c-35 80 -102 132 -201 132c-136 0 -239 -123 -239 -289c0 -169 103 -289 239 -289z" />
</font>
</defs>
</svg>
